<svg xmlns="http://www.w3.org/2000/svg" xmlns:xlink="http://www.w3.org/1999/xlink" width="500" zoomAndPan="magnify" viewBox="0 0 375 374.999991" height="500" preserveAspectRatio="xMidYMid meet" version="1.2"><g id="459aacae39"><path style=" stroke:none;fill-rule:evenodd;fill:#005c64;fill-opacity:1;" d="M 232.367188 157.398438 C 227.789062 157.792969 222.03125 159.738281 218.351562 162.132812 C 214.726562 164.492188 210.789062 168.417969 208.945312 171.511719 C 207.683594 173.625 207.078125 174.769531 206.75 175.640625 C 206.574219 176.117188 206.351562 176.679688 206.261719 176.890625 C 205.613281 178.371094 204.890625 181.203125 204.429688 184.054688 C 204.171875 185.648438 204.128906 186.886719 204.210938 190.398438 C 204.324219 195.320312 204.597656 197.113281 205.789062 200.71875 C 206.371094 202.472656 208.347656 206.351562 209.679688 208.351562 C 210.910156 210.203125 214.269531 213.84375 215.804688 214.988281 C 218.835938 217.246094 220.414062 218.15625 223.894531 219.660156 C 224.929688 220.109375 227.335938 220.804688 228.804688 221.074219 C 229.703125 221.242188 230.859375 221.464844 231.371094 221.570312 C 231.882812 221.675781 233.671875 221.757812 235.351562 221.757812 C 241.960938 221.757812 247.476562 220.136719 252.535156 216.707031 C 254.582031 215.324219 255.355469 214.675781 257.402344 212.632812 C 260.3125 209.726562 262.042969 206.460938 262.945312 202.160156 C 263.585938 199.128906 263.660156 198.261719 263.660156 194.011719 C 263.660156 189.222656 263.5625 188.746094 262.515625 188.34375 C 262.214844 188.226562 256.972656 188.128906 249.066406 188.09375 C 237.714844 188.042969 236.085938 188.070312 235.925781 188.324219 C 235.824219 188.480469 235.742188 190.367188 235.738281 192.511719 C 235.734375 196.402344 235.738281 196.414062 236.210938 196.882812 L 236.683594 197.355469 L 245.117188 197.351562 C 254.75 197.34375 254.160156 197.234375 253.941406 198.988281 C 253.703125 200.878906 252.945312 202.675781 251.476562 204.800781 C 247.628906 210.378906 239.925781 213.566406 232.789062 212.527344 C 227.296875 211.726562 223.476562 209.777344 219.71875 205.851562 C 216.476562 202.464844 215.199219 199.453125 214.371094 193.222656 C 213.917969 189.824219 214.433594 184.257812 215.507812 181.023438 C 216.898438 176.828125 219.074219 173.449219 222.019531 170.917969 C 223.957031 169.246094 225.28125 168.449219 227.5 167.621094 C 230.695312 166.421875 232.269531 166.183594 236.3125 166.277344 C 240.023438 166.363281 239.878906 166.335938 243.054688 167.480469 C 246.664062 168.78125 249.945312 171.707031 252.117188 175.558594 C 252.695312 176.582031 253.378906 177.558594 253.636719 177.730469 C 254.519531 178.3125 258.011719 178.066406 260.578125 177.238281 C 261.703125 176.875 262.640625 176.289062 263.019531 175.714844 C 263.296875 175.289062 263.28125 175.171875 262.773438 173.960938 C 260.722656 169.082031 256.828125 164.644531 251.925781 161.609375 C 246.015625 157.953125 240.273438 156.714844 232.367188 157.398438 M 324.128906 157.402344 C 319.28125 157.929688 314.089844 159.785156 310.167969 162.386719 C 307.796875 163.957031 303.984375 167.800781 302.273438 170.347656 C 299.765625 174.082031 298.007812 178.246094 297.140625 182.523438 C 296.773438 184.332031 296.722656 185.175781 296.734375 189.574219 C 296.75 194.207031 296.785156 194.734375 297.25 196.855469 C 297.78125 199.28125 297.972656 199.921875 298.917969 202.359375 C 301.035156 207.847656 305.558594 213.222656 311.089844 216.835938 C 313.332031 218.300781 318.425781 220.414062 320.855469 220.886719 C 324.75 221.644531 325.742188 221.753906 328.824219 221.757812 C 334.058594 221.761719 337.296875 221.070312 342.230469 218.890625 C 343.917969 218.148438 347.714844 215.882812 348.515625 215.140625 C 348.636719 215.027344 349.355469 214.417969 350.117188 213.785156 C 353.390625 211.050781 356.976562 205.644531 358.464844 201.199219 C 359.855469 197.039062 360.238281 194.613281 360.238281 189.957031 C 360.238281 182.875 359.027344 178.132812 355.726562 172.304688 C 354.007812 169.261719 350.804688 165.75 347.429688 163.203125 C 344.25 160.804688 339.734375 158.804688 335.203125 157.792969 C 332.710938 157.234375 327.378906 157.046875 324.128906 157.402344 M 35.457031 158.910156 C 34.980469 158.980469 34.40625 159.136719 34.183594 159.261719 C 33.644531 159.558594 32.757812 161.382812 30.929688 165.9375 C 30.335938 167.417969 29.582031 169.234375 29.257812 169.972656 L 28.304688 172.132812 C 28.105469 172.582031 27.945312 173.003906 27.945312 173.074219 C 27.945312 173.203125 26.890625 175.734375 26.089844 177.519531 C 25.839844 178.078125 25.636719 178.613281 25.636719 178.707031 C 25.636719 178.863281 25.441406 179.347656 24.382812 181.886719 C 24.25 182.203125 23.648438 183.71875 23.042969 185.25 C 22.4375 186.78125 21.730469 188.492188 21.476562 189.050781 C 21.222656 189.609375 21.011719 190.101562 21.011719 190.148438 C 21.011719 190.195312 20.796875 190.707031 20.53125 191.285156 C 20.265625 191.863281 20.050781 192.382812 20.050781 192.4375 C 20.050781 192.496094 19.789062 193.109375 19.472656 193.800781 C 19.15625 194.492188 18.894531 195.109375 18.894531 195.167969 C 18.894531 195.277344 18.742188 195.640625 17.953125 197.402344 C 17.730469 197.902344 17.546875 198.363281 17.546875 198.429688 C 17.546875 198.492188 17.40625 198.863281 17.238281 199.246094 C 17.078125 199.609375 16.925781 199.96875 16.773438 200.332031 C 16.6875 200.546875 15.859375 202.578125 14.933594 204.847656 C 14.007812 207.121094 13.101562 209.328125 12.914062 209.75 C 12.242188 211.277344 10.804688 214.894531 10.804688 215.050781 C 10.804688 215.140625 10.597656 215.671875 10.34375 216.230469 C 9.328125 218.46875 9.203125 219.125 9.703125 219.660156 C 10.089844 220.070312 10.167969 220.078125 14.160156 219.984375 C 16.429688 219.929688 18.453125 219.792969 18.75 219.675781 C 19.042969 219.558594 19.453125 219.179688 19.667969 218.832031 C 20.105469 218.117188 22.011719 213.332031 22.457031 211.828125 C 22.820312 210.605469 25.28125 205.605469 25.683594 205.273438 C 25.914062 205.082031 28.90625 205.027344 39.566406 205.015625 C 47.035156 205.011719 53.25 205.066406 53.371094 205.140625 C 53.492188 205.214844 53.84375 205.828125 54.152344 206.503906 L 55.292969 208.996094 C 55.609375 209.6875 55.871094 210.363281 55.871094 210.492188 C 55.871094 210.625 55.941406 210.8125 56.03125 210.910156 C 56.121094 211.011719 56.308594 211.398438 56.445312 211.765625 C 56.585938 212.136719 56.890625 212.871094 57.121094 213.402344 C 57.351562 213.929688 57.875 215.183594 58.285156 216.1875 C 59.253906 218.5625 59.53125 219.054688 60.175781 219.535156 C 60.679688 219.910156 60.960938 219.933594 65 219.933594 C 69.636719 219.933594 69.925781 219.875 69.925781 218.921875 C 69.925781 218.464844 68.691406 215.175781 67.703125 213.015625 C 67.175781 211.855469 64.84375 206.253906 62.867188 201.402344 C 62.070312 199.453125 61.261719 197.507812 61.066406 197.078125 C 60.433594 195.699219 58.9375 192.136719 57.992188 189.765625 C 56.59375 186.242188 51.273438 173.226562 50.773438 172.085938 C 50.632812 171.769531 50.027344 170.257812 49.421875 168.722656 C 48.820312 167.191406 47.925781 164.984375 47.4375 163.824219 C 45.722656 159.757812 45.3125 159.21875 43.710938 158.910156 C 42.738281 158.722656 36.734375 158.722656 35.457031 158.910156 M 165.507812 158.90625 C 164.851562 158.988281 164.109375 159.191406 163.855469 159.355469 C 163.113281 159.839844 162.234375 161.703125 159.472656 168.628906 C 159.132812 169.472656 158.742188 170.425781 158.597656 170.742188 C 158.457031 171.058594 158.070312 172.007812 157.738281 172.855469 C 157.410156 173.699219 156.890625 174.953125 156.589844 175.640625 C 155.941406 177.109375 152.3125 185.972656 151.902344 187.082031 C 151.535156 188.082031 147.226562 198.765625 146.875 199.542969 C 146.394531 200.613281 145.65625 202.410156 144.933594 204.273438 C 144.183594 206.210938 143.363281 208.183594 143.082031 208.738281 C 142.992188 208.921875 142.914062 209.152344 142.914062 209.253906 C 142.914062 209.351562 142.609375 210.089844 142.238281 210.890625 C 141.871094 211.691406 141.566406 212.410156 141.566406 212.488281 C 141.566406 212.65625 140.746094 214.703125 140.097656 216.144531 C 139.84375 216.703125 139.640625 217.28125 139.640625 217.429688 C 139.640625 217.578125 139.554688 217.753906 139.449219 217.820312 C 139.34375 217.886719 139.253906 218.230469 139.253906 218.585938 C 139.253906 219.0625 139.394531 219.34375 139.785156 219.652344 C 140.296875 220.054688 140.4375 220.066406 144.070312 219.980469 C 148.78125 219.871094 148.949219 219.8125 149.785156 217.980469 C 150.113281 217.257812 150.617188 216.0625 150.90625 215.320312 C 151.195312 214.582031 151.503906 213.804688 151.585938 213.59375 C 151.671875 213.382812 151.96875 212.589844 152.25 211.832031 C 152.527344 211.074219 152.964844 210.230469 153.21875 209.957031 C 153.648438 209.496094 153.796875 209.460938 155.390625 209.460938 C 159.429688 209.460938 162.09375 208.695312 167.082031 206.09375 C 170.375 204.378906 171.4375 203.953125 173.324219 203.589844 C 177.050781 202.878906 181.195312 203.625 183.023438 205.335938 C 184.027344 206.273438 184.570312 207.433594 186.769531 213.304688 C 188.621094 218.246094 189.15625 219.253906 190.152344 219.671875 C 190.609375 219.867188 191.875 219.933594 195.023438 219.933594 C 199.425781 219.933594 199.917969 219.851562 199.917969 219.117188 C 199.917969 218.875 198.71875 215.949219 197.417969 213.015625 C 197.230469 212.59375 196.796875 211.554688 196.460938 210.710938 C 196.121094 209.863281 195.679688 208.785156 195.480469 208.308594 C 195.109375 207.417969 191.742188 199.15625 189.609375 193.894531 C 188.027344 189.988281 184.675781 181.980469 182.773438 177.5625 C 182.570312 177.085938 182.09375 175.875 181.714844 174.871094 C 181.339844 173.867188 180.949219 172.875 180.855469 172.664062 C 180.757812 172.453125 180.1875 171.023438 179.585938 169.492188 C 178.984375 167.960938 178.285156 166.25 178.035156 165.691406 C 177.785156 165.132812 177.578125 164.601562 177.578125 164.511719 C 177.578125 164.417969 177.15625 163.449219 176.640625 162.355469 C 175.675781 160.308594 175.023438 159.503906 174.015625 159.105469 C 173.324219 158.832031 167.246094 158.691406 165.507812 158.90625 M 80.09375 159.261719 C 79.320312 160.140625 79.339844 159.476562 79.304688 189.675781 L 79.265625 218.867188 L 79.800781 219.402344 L 80.335938 219.933594 L 92.539062 219.921875 C 101.332031 219.910156 105.132812 219.839844 106.15625 219.667969 C 109.320312 219.136719 109.960938 219.003906 111.714844 218.542969 C 117.199219 217.101562 121.945312 214.414062 125.894531 210.519531 C 128.234375 208.203125 130.105469 205.589844 131.28125 202.984375 C 131.65625 202.160156 132.039062 201.3125 132.140625 201.101562 C 132.417969 200.511719 133.203125 197.980469 133.542969 196.585938 C 134.128906 194.195312 134.285156 192.625 134.289062 189.285156 C 134.289062 185.257812 133.890625 182.710938 132.707031 179.125 C 131.167969 174.472656 129.566406 171.777344 126.375 168.480469 C 122.726562 164.714844 118.585938 162.109375 113.835938 160.59375 C 109.066406 159.074219 107.371094 158.941406 92.441406 158.929688 C 81.195312 158.925781 80.367188 158.945312 80.09375 159.261719 M 276.921875 159.289062 L 276.464844 159.65625 L 276.363281 219.195312 L 276.769531 219.566406 C 277.140625 219.898438 277.550781 219.941406 281.007812 219.992188 L 284.839844 220.050781 L 285.324219 219.566406 L 285.8125 219.082031 L 285.761719 189.820312 C 285.710938 162.070312 285.691406 160.523438 285.363281 159.925781 C 285.171875 159.574219 284.800781 159.207031 284.53125 159.109375 C 284.265625 159.007812 282.546875 158.921875 280.710938 158.921875 C 277.714844 158.921875 277.328125 158.960938 276.921875 159.289062 M 323.839844 166.605469 C 319.226562 167.660156 316.324219 169.25 313.007812 172.523438 C 310.941406 174.566406 309.761719 176.273438 308.644531 178.839844 C 307.078125 182.449219 306.476562 185.972656 306.6875 190.339844 C 306.757812 191.820312 306.949219 193.679688 307.113281 194.472656 C 308.058594 199.09375 310.261719 203.285156 313.386719 206.410156 C 316.394531 209.417969 319.652344 211.171875 323.9375 212.089844 C 325.925781 212.515625 331.4375 212.515625 333.179688 212.089844 C 333.867188 211.921875 334.789062 211.695312 335.222656 211.589844 C 335.65625 211.480469 336.703125 211.101562 337.542969 210.75 C 341.816406 208.953125 345.386719 205.449219 347.769531 200.714844 C 348.457031 199.351562 348.6875 198.730469 349.34375 196.492188 C 349.871094 194.683594 350.03125 192.976562 350.027344 189.09375 C 350.027344 183.683594 349.6875 182.042969 347.789062 178.25 C 346.128906 174.941406 343.457031 171.730469 340.765625 169.816406 C 339.71875 169.070312 337.015625 167.726562 334.8125 166.859375 C 333.511719 166.347656 333.335938 166.332031 329.425781 166.292969 C 326.082031 166.257812 325.113281 166.3125 323.839844 166.605469 M 93.421875 167.378906 C 91.355469 167.445312 89.65625 167.511719 89.640625 167.535156 C 89.128906 168.3125 89.101562 169.175781 89.136719 185.4375 C 89.15625 194.582031 89.175781 203.945312 89.179688 206.242188 C 89.183594 210.160156 89.210938 210.445312 89.570312 210.804688 C 89.941406 211.175781 90.210938 211.191406 96.359375 211.191406 C 103.800781 211.191406 105.320312 211.019531 109.789062 209.703125 C 111.585938 209.175781 114.597656 207.765625 116.003906 206.800781 C 117.273438 205.929688 119.859375 203.300781 120.785156 201.9375 C 124.292969 196.785156 125.332031 189.078125 123.460938 182.058594 C 122.070312 176.832031 118.28125 172.558594 112.585938 169.789062 C 109.582031 168.332031 107.410156 167.804688 102.664062 167.382812 C 100.398438 167.183594 99.902344 167.183594 93.421875 167.378906 M 168.328125 171.460938 C 168.117188 171.804688 167.679688 172.777344 167.351562 173.625 C 166.605469 175.550781 164.3125 181.359375 162.457031 186.019531 C 159.503906 193.441406 157.742188 198.105469 157.742188 198.5 C 157.742188 199 158.558594 199.855469 159.035156 199.847656 C 159.746094 199.839844 162.382812 198.839844 165.308594 197.46875 C 168.855469 195.808594 173.066406 194.855469 176.875 194.855469 C 177.996094 194.855469 178.238281 194.792969 178.644531 194.386719 C 178.90625 194.125 179.117188 193.792969 179.117188 193.640625 C 179.117188 193.378906 177.535156 189.367188 175.632812 184.820312 C 175.113281 183.582031 174.574219 182.242188 174.429688 181.84375 C 173.582031 179.484375 170.390625 171.867188 170.054688 171.398438 C 169.503906 170.625 168.828125 170.648438 168.328125 171.460938 M 38.570312 171.558594 C 38.25 171.832031 34.679688 180.316406 32.285156 186.5 C 31.980469 187.269531 31.671875 188.039062 31.355469 188.804688 C 30.023438 191.992188 28.910156 194.917969 28.910156 195.226562 C 28.910156 195.414062 29.074219 195.714844 29.277344 195.898438 C 29.613281 196.203125 30.402344 196.226562 39.121094 196.210938 C 44.816406 196.199219 48.738281 196.117188 48.949219 196.003906 C 49.449219 195.734375 49.574219 195.15625 49.304688 194.328125 C 48.78125 192.714844 47.308594 188.90625 46.699219 187.585938 C 46.339844 186.808594 46.046875 186.132812 46.046875 186.078125 C 46.046875 186.027344 45.804688 185.453125 45.503906 184.800781 C 45.011719 183.730469 43.929688 181.175781 42.644531 178.042969 C 41.933594 176.320312 41.882812 176.195312 41.445312 175.210938 C 41.222656 174.710938 40.816406 173.734375 40.539062 173.042969 C 40.097656 171.953125 39.519531 171.222656 39.09375 171.222656 C 39.023438 171.222656 38.789062 171.371094 38.570312 171.558594 "/></g></svg>